<svg width="30" height="25" viewBox="0 0 30 25" fill="none" xmlns="http://www.w3.org/2000/svg">
<path fill-rule="evenodd" clip-rule="evenodd" d="M10.4746 17.9809C11.8978 16.6439 13.1944 13.7736 13.4566 13.1721C14.1146 11.6641 13.9819 11.716 15.1856 10.5053L23.847 1.78998L23.3835 1.95973C23.1706 2.0379 22.9351 1.98216 22.7752 1.82321C22.6962 1.74598 22.6409 1.64773 22.6159 1.54007C22.591 1.43242 22.5974 1.31987 22.6343 1.21574L22.8012 0.75071L14.1399 9.46605C12.9367 10.6767 12.9878 10.5443 11.4839 11.2117C10.884 11.4776 8.0219 12.792 6.69372 14.2234C5.14592 15.8914 3.40043 17.5489 1.78164 19.1745C-0.992898 21.9591 2.78691 25.7155 5.55478 22.9243C7.16969 21.2948 8.81632 19.5391 10.4746 17.9809Z" fill="white"/>
<path fill-rule="evenodd" clip-rule="evenodd" d="M23.3198 14.6516C22.0064 13.2066 19.1579 11.8628 18.5608 11.5907C17.0639 10.9079 17.1136 11.0414 15.9229 9.81787L7.3517 1.01394L7.51378 1.48011C7.58843 1.69428 7.52881 1.9288 7.36724 2.0861C7.28871 2.16386 7.18956 2.2175 7.08151 2.24068C6.97347 2.26386 6.86104 2.25562 6.75753 2.21691L6.29531 2.0424L14.8666 10.8463C16.0572 12.0693 15.9256 12.0161 16.5681 13.5307C16.8241 14.1349 18.0911 17.0184 19.5005 18.37C21.1427 19.9451 22.7712 21.7177 24.3698 23.3631C27.1082 26.1832 30.9265 22.4659 28.1813 19.6523C26.5787 18.0108 24.8504 16.3354 23.3198 14.6516Z" fill="white"/>
</svg>
