<svg width="34" height="57" viewBox="0 0 34 57" fill="none" xmlns="http://www.w3.org/2000/svg">
<path fill-rule="evenodd" clip-rule="evenodd" d="M11.0496 19.6747C13.0013 19.7385 15.9494 18.6303 16.5605 18.3913C18.093 17.7926 17.9625 17.7353 19.6698 17.7329L31.957 17.7134L31.5096 17.5051C31.3039 17.4095 31.1771 17.2034 31.1768 16.9779C31.1757 16.8674 31.2062 16.7589 31.2648 16.6652C31.3235 16.5715 31.4077 16.4966 31.5075 16.4493L31.9547 16.2391L19.6675 16.2586C17.9606 16.2613 18.0905 16.2039 16.5561 15.6101C15.9442 15.3731 12.9926 14.2742 11.0412 14.3442C8.76713 14.4257 6.36095 14.3599 4.06683 14.3612C0.135912 14.3623 0.144368 19.6912 4.07527 19.6807C6.36938 19.6739 8.77534 19.6004 11.0496 19.6747Z" fill="white"/>
<path fill-rule="evenodd" clip-rule="evenodd" d="M32.3257 17.4126L32.9694 17.7118L33.0685 17.7583C33.0894 17.7684 33.1127 17.7725 33.1358 17.7701C33.1589 17.7678 33.1809 17.759 33.1992 17.7447C33.219 17.7301 33.2349 17.7109 33.2457 17.6888C33.2564 17.6667 33.2616 17.6424 33.2609 17.6178L33.2599 16.9742L33.2588 16.3306C33.2595 16.306 33.2542 16.2817 33.2434 16.2596C33.2326 16.2375 33.2166 16.2184 33.1968 16.2038C33.1784 16.1898 33.1564 16.1812 33.1334 16.179C33.1104 16.1767 33.0872 16.1809 33.0664 16.1911L32.9667 16.2379L32.3247 16.5392L31.6898 16.8365C31.6637 16.8492 31.6418 16.8693 31.6268 16.8942C31.6118 16.9191 31.6044 16.9478 31.6054 16.9768C31.6055 17.0395 31.6381 17.0923 31.6902 17.1161L32.3257 17.4126Z" fill="white"/>
<path fill-rule="evenodd" clip-rule="evenodd" d="M11.0496 19.6747C13.0013 19.7385 15.9494 18.6303 16.5605 18.3913C18.093 17.7926 17.9625 17.7353 19.6698 17.7329L31.957 17.7134L31.5096 17.5051C31.3039 17.4095 31.1771 17.2034 31.1768 16.9779C31.1757 16.8674 31.2062 16.7589 31.2648 16.6652C31.3235 16.5715 31.4077 16.4966 31.5075 16.4493L31.9547 16.2391L19.6675 16.2586C17.9606 16.2613 18.0905 16.2039 16.5561 15.6101C15.9442 15.3731 12.9926 14.2742 11.0412 14.3442C8.76713 14.4257 6.36095 14.3599 4.06683 14.3612C0.135912 14.3623 0.144368 19.6912 4.07527 19.6807C6.36938 19.6739 8.77534 19.6004 11.0496 19.6747Z" fill="white"/>
<path fill-rule="evenodd" clip-rule="evenodd" d="M32.3257 17.4126L32.9694 17.7118L33.0685 17.7583C33.0894 17.7684 33.1127 17.7725 33.1358 17.7701C33.1589 17.7678 33.1809 17.759 33.1992 17.7447C33.219 17.7301 33.2349 17.7109 33.2457 17.6888C33.2564 17.6667 33.2616 17.6424 33.2609 17.6178L33.2599 16.9742L33.2588 16.3306C33.2595 16.306 33.2542 16.2817 33.2434 16.2596C33.2326 16.2375 33.2166 16.2184 33.1968 16.2038C33.1784 16.1898 33.1564 16.1812 33.1334 16.179C33.1104 16.1767 33.0872 16.1809 33.0664 16.1911L32.9667 16.2379L32.3247 16.5392L31.6898 16.8365C31.6637 16.8492 31.6418 16.8693 31.6268 16.8942C31.6118 16.9191 31.6044 16.9478 31.6054 16.9768C31.6055 17.0395 31.6381 17.0923 31.6902 17.1161L32.3257 17.4126Z" fill="white"/>
<path fill-rule="evenodd" clip-rule="evenodd" d="M22.925 26.3045C20.9735 26.2378 18.0237 27.3418 17.4123 27.5799C15.8789 28.1763 16.0093 28.2338 14.302 28.2336L2.01478 28.2352L2.46188 28.4442C2.66743 28.54 2.7939 28.7463 2.79393 28.9718C2.79488 29.0823 2.76417 29.1908 2.70542 29.2844C2.64666 29.378 2.56234 29.4528 2.46241 29.5L2.01496 29.7095L14.3022 29.708C16.0091 29.7078 15.8791 29.7649 17.4126 30.361C18.0241 30.5989 20.9741 31.7022 22.9257 31.635C25.1998 31.5568 27.6059 31.6262 29.9 31.6282C33.8309 31.6328 33.8303 26.3039 29.8994 26.3087C27.6053 26.3121 25.1992 26.3821 22.925 26.3045Z" fill="white"/>
<path fill-rule="evenodd" clip-rule="evenodd" d="M1.64566 28.5355L1.00241 28.2353L0.903357 28.1887C0.882486 28.1785 0.859183 28.1744 0.836078 28.1767C0.812973 28.1791 0.790987 28.1879 0.772601 28.2021C0.752822 28.2166 0.736867 28.2358 0.726098 28.2579C0.71533 28.28 0.710067 28.3043 0.710762 28.3289L0.710841 28.9725L0.710921 29.6161C0.710233 29.6407 0.7155 29.665 0.726274 29.6871C0.737048 29.7092 0.753009 29.7284 0.772792 29.743C0.79118 29.757 0.813116 29.7656 0.836142 29.7679C0.859168 29.7702 0.882374 29.766 0.903159 29.7559L1.00298 29.7093L1.64538 29.4089L2.28072 29.1125C2.30687 29.0998 2.32878 29.0798 2.34379 29.0549C2.3588 29.0301 2.36626 29.0013 2.36527 28.9723C2.36526 28.9097 2.33276 28.8568 2.28069 28.8329L1.64566 28.5355Z" fill="white"/>
<path fill-rule="evenodd" clip-rule="evenodd" d="M11.0199 42.6452C12.9716 42.7091 15.9197 41.6008 16.5308 41.3618C18.0633 40.7631 17.9329 40.7058 19.6402 40.7035L31.9273 40.684L31.4799 40.4756C31.2743 40.38 31.1475 40.1739 31.1471 39.9484C31.146 39.8379 31.1766 39.7294 31.2352 39.6357C31.2938 39.542 31.378 39.4671 31.4779 39.4198L31.925 39.2096L19.6378 39.2291C17.9309 39.2318 18.0608 39.1745 16.5264 38.5807C15.9145 38.3436 12.9629 37.2447 11.0115 37.3147C8.73747 37.3963 6.33128 37.3304 4.03717 37.3317C0.106248 37.3328 0.114704 42.6617 4.04561 42.6512C6.33972 42.6444 8.74568 42.5709 11.0199 42.6452Z" fill="white"/>
<path fill-rule="evenodd" clip-rule="evenodd" d="M32.296 40.3831L32.9397 40.6823L33.0388 40.7288C33.0597 40.7389 33.083 40.7431 33.1061 40.7407C33.1292 40.7383 33.1512 40.7295 33.1696 40.7153C33.1893 40.7006 33.2053 40.6815 33.216 40.6594C33.2267 40.6373 33.232 40.6129 33.2312 40.5883L33.2302 39.9447L33.2292 39.3011C33.2298 39.2765 33.2245 39.2522 33.2137 39.2301C33.2029 39.208 33.1869 39.1889 33.1671 39.1744C33.1487 39.1603 33.1268 39.1517 33.1037 39.1495C33.0807 39.1472 33.0575 39.1515 33.0367 39.1617L32.937 39.2084L32.295 39.5097L31.6601 39.8071C31.634 39.8198 31.6121 39.8398 31.5971 39.8647C31.5822 39.8896 31.5747 39.9183 31.5758 39.9473C31.5759 40.01 31.6085 40.0628 31.6606 40.0866L32.296 40.3831Z" fill="white"/>
</svg>
